<svg width="27" height="28" viewBox="0 0 27 28" fill="none" xmlns="http://www.w3.org/2000/svg">
<path d="M22.8566 4.84819C21.1358 4.02933 19.2904 3.42603 17.3609 3.08049C17.3257 3.07382 17.2906 3.09049 17.2725 3.12382C17.0352 3.56157 16.7723 4.13265 16.5882 4.58152C14.513 4.25932 12.4483 4.25932 10.4156 4.58152C10.2315 4.12267 9.95905 3.56157 9.72065 3.12382C9.70255 3.0916 9.66744 3.07493 9.63231 3.08049C7.7039 3.42492 5.85851 4.02822 4.13655 4.84819C4.12164 4.85485 4.10887 4.86598 4.10039 4.88041C0.600066 10.3035 -0.358819 15.5933 0.111578 20.8175C0.113706 20.8431 0.127541 20.8675 0.146698 20.883C2.45611 22.6418 4.69317 23.7096 6.88869 24.4173C6.92383 24.4284 6.96106 24.4151 6.98342 24.3851C7.50277 23.6496 7.96572 22.8741 8.36266 22.0585C8.38609 22.0108 8.36372 21.9541 8.31585 21.9352C7.58152 21.6463 6.8823 21.2941 6.2097 20.8942C6.15649 20.8619 6.15224 20.783 6.20118 20.7453C6.34272 20.6353 6.4843 20.5208 6.61945 20.4053C6.6439 20.3842 6.67797 20.3797 6.70672 20.393C11.1254 22.4852 15.9092 22.4852 20.2758 20.393C20.3046 20.3786 20.3386 20.3831 20.3642 20.4042C20.4994 20.5197 20.6409 20.6353 20.7835 20.7453C20.8324 20.783 20.8292 20.8619 20.776 20.8942C20.1034 21.3019 19.4042 21.6463 18.6688 21.9341C18.6209 21.953 18.5997 22.0108 18.6231 22.0585C19.0285 22.8729 19.4915 23.6485 20.0013 24.384C20.0226 24.4151 20.0608 24.4284 20.096 24.4173C22.3022 23.7096 24.5392 22.6418 26.8486 20.883C26.8688 20.8675 26.8816 20.8442 26.8837 20.8186C27.4467 14.7788 25.9408 9.53243 22.8917 4.88151C22.8843 4.86598 22.8715 4.85485 22.8566 4.84819ZM9.02253 17.6365C7.69219 17.6365 6.59602 16.3699 6.59602 14.8144C6.59602 13.2589 7.67093 11.9923 9.02253 11.9923C10.3847 11.9923 11.4703 13.27 11.449 14.8144C11.449 16.3699 10.3741 17.6365 9.02253 17.6365ZM17.9941 17.6365C16.6638 17.6365 15.5676 16.3699 15.5676 14.8144C15.5676 13.2589 16.6425 11.9923 17.9941 11.9923C19.3563 11.9923 20.4419 13.27 20.4206 14.8144C20.4206 16.3699 19.3563 17.6365 17.9941 17.6365Z" fill="white"/>
</svg>
