<svg width="25" height="22" viewBox="0 0 25 22" fill="none" xmlns="http://www.w3.org/2000/svg">
<path fill-rule="evenodd" clip-rule="evenodd" d="M12.6484 0.117991C13.136 0.340152 13.2773 0.755948 13.2773 1.96958C13.2773 2.7209 13.3174 3.08096 13.4014 3.08096C13.4698 3.08096 13.9437 3.43597 14.4546 3.86984C16.8541 5.90693 18.333 8.23518 18.3391 9.98471C18.3433 11.2516 17.5546 12.7189 15.9566 14.4177L15.1259 15.3006H13.2773V17.525L14.6259 17.4825C16.2206 17.4322 16.3764 17.3684 17.5074 16.3021L18.2863 15.5677L21.281 14.709C22.9281 14.2366 24.3275 13.8822 24.3909 13.9214C24.4543 13.9606 24.5062 14.3089 24.5062 14.6956V15.3987L23.7591 15.7913C22.5867 16.4074 22.2465 16.7601 21.0274 18.6254C19.7672 20.5531 19.1139 21.2837 18.2863 21.6905L17.7358 21.9609L11.9351 21.9912C7.16239 22.0161 5.99663 21.9929 5.35635 21.8593C2.96034 21.3596 1.06008 19.6635 0.352318 17.3922C0.00753886 16.2861 -0.102538 15.2668 0.104307 15.095C0.215624 15.0027 1.072 14.9748 3.15417 14.9961L6.04937 15.0254L6.17315 15.6309C6.32469 16.3716 6.45924 16.6257 6.89328 16.9909C7.38479 17.4045 7.87876 17.501 9.5068 17.5016L10.9655 17.5023V15.3006H9.54093C8.68249 15.3006 8.08827 15.2555 8.04614 15.1873C8.0076 15.1249 8.22429 14.6871 8.52753 14.2144C9.25876 13.0746 9.90981 11.7651 10.1497 10.9522C10.6801 9.15388 10.1213 6.29721 8.62616 3.16359C8.25793 2.39154 7.9898 1.72649 8.03062 1.68575C8.07145 1.64491 8.74357 1.78424 9.52444 1.99538L10.944 2.37929L10.9835 1.50904C11.0209 0.687707 11.0432 0.620659 11.3813 0.318679C11.7632 -0.022475 12.1912 -0.0902911 12.6484 0.117991ZM7.41702 5.2756C8.35334 7.61119 8.60155 9.55325 8.12163 10.7873C7.99214 11.1202 7.69837 11.7146 7.46894 12.1082L7.05189 12.8239L4.28748 12.8533C2.13592 12.8761 1.51148 12.8516 1.47033 12.743C1.39064 12.5326 6.69395 4.28309 6.88615 4.31853C6.97367 4.33453 7.21241 4.76514 7.41702 5.2756Z" fill="white"/>
</svg>
