<svg width="27" height="28" viewBox="0 0 27 28" fill="none" xmlns="http://www.w3.org/2000/svg">
<g clip-path="url(#clip0_8_10)">
<path d="M8.49393 25.375C18.6801 25.375 24.2531 16.6212 24.2531 9.03223C24.2531 8.78614 24.2478 8.53458 24.2372 8.28848C25.3214 7.47543 26.2569 6.46836 27 5.31458C25.9903 5.78043 24.9183 6.08467 23.8206 6.21692C24.9764 5.49845 25.8418 4.36978 26.2564 3.04012C25.1691 3.70838 23.98 4.17977 22.7401 4.43411C21.9047 3.51355 20.8001 2.90403 19.5971 2.69979C18.3942 2.49554 17.1598 2.70795 16.085 3.30417C15.0101 3.90039 14.1545 4.84722 13.6506 5.99826C13.1466 7.1493 13.0224 8.44044 13.297 9.67208C11.0953 9.5575 8.94143 8.96438 6.97498 7.93118C5.00853 6.89797 3.2734 5.44774 1.88209 3.6745C1.17495 4.93885 0.958564 6.43498 1.27691 7.85883C1.59526 9.28269 2.42445 10.5274 3.59596 11.34C2.71646 11.3111 1.85622 11.0655 1.08633 10.6236V10.6947C1.08554 12.0216 1.52786 13.3077 2.3381 14.3346C3.14834 15.3615 4.27649 16.0657 5.53078 16.3275C4.71606 16.5587 3.86098 16.5924 3.0317 16.426C3.38564 17.5671 4.07427 18.5651 5.00149 19.2808C5.92871 19.9965 7.04826 20.3941 8.20389 20.4182C6.24198 22.0164 3.81845 22.8832 1.32363 22.8791C0.881198 22.8784 0.439199 22.8503 0 22.7949C2.53446 24.4811 5.48272 25.3767 8.49393 25.375Z" fill="white"/>
</g>
<defs>
<clipPath id="clip0_8_10">
<rect width="27" height="28" fill="white"/>
</clipPath>
</defs>
</svg>
